<svg xmlns="http://www.w3.org/2000/svg" version="1.1" xmlns:xlink="http://www.w3.org/1999/xlink" xmlns:svgjs="http://svgjs.dev/svgjs" width="2000" height="1500" viewBox="0 0 2000 1500"><rect width="2000" height="1500" fill="#000000"></rect><g transform="matrix(0.75,0,0,0.75,249.09301349765587,401.75782332049664)"><svg viewBox="0 0 396 183" data-background-color="#231239" preserveAspectRatio="xMidYMid meet" height="924" width="2000" xmlns="http://www.w3.org/2000/svg" xmlns:xlink="http://www.w3.org/1999/xlink"><g id="tight-bounds" transform="matrix(1,0,0,1,0.24013837217330547,0.4600553136350811)"><svg viewBox="0 0 395.52 182.07988937272984" height="182.07988937272984" width="395.52"><g><svg viewBox="0 0 395.52 182.07988937272984" height="182.07988937272984" width="395.52"><g transform="matrix(1,0,0,1,0,115.37911274211878)"><svg viewBox="0 0 395.52 66.70077663061106" height="66.70077663061106" width="395.52"><g id="textblocktransform"><svg viewBox="0 0 395.52 66.70077663061106" height="66.70077663061106" width="395.52" id="textblock"><g><svg viewBox="0 0 395.52 66.70077663061106" height="66.70077663061106" width="395.52"><g transform="matrix(1,0,0,1,0,0)"><svg width="395.52" viewBox="-0.5062925880550656 -28.077878132091392 265.3391676662464 44.74698687269945" height="66.70077663061106" data-palette-color="#f4ab4f"><path d="M10.212 15.838v0l-5.488 0.826c-0.158 0.024-0.249-0.043-0.273-0.201v0l-4.954-33.567c-0.019-0.125 0.034-0.197 0.16-0.216v0l9.394-1.415c2.993-0.451 5.497 0.103 7.511 1.66 2.014 1.557 3.257 3.902 3.729 7.034v0c0.344 2.288 0.19 4.35-0.464 6.188v0c-0.662 1.826-1.656 3.31-2.98 4.453-1.325 1.143-2.847 1.845-4.567 2.104v0l-3.719 0.56 1.853 12.301c0.024 0.158-0.043 0.249-0.202 0.273zM9.924-12.94v0l-3.712 0.6 1.457 9.68 3.719-0.56c1.035-0.156 1.86-0.786 2.476-1.889 0.615-1.111 0.803-2.46 0.563-4.049v0c-0.192-1.272-0.692-2.266-1.5-2.98-0.809-0.714-1.81-0.981-3.003-0.802zM32.074 12.795v0l-5.548 0.68c-0.132 0.016-0.208-0.055-0.228-0.214v0l-4.028-33.69c-0.015-0.126 0.04-0.196 0.166-0.212v0l9.915-1.215c1.767-0.217 3.447 0.014 5.042 0.692v0c1.588 0.679 2.914 1.688 3.978 3.029 1.065 1.347 1.71 2.937 1.934 4.77v0c0.147 1.198 0.094 2.306-0.156 3.323v0c-0.245 1.017-0.571 1.893-0.978 2.629-0.401 0.728-0.784 1.275-1.149 1.642v0c2.014 1.748 3.184 3.945 3.508 6.592v0l1.282 10.049c0.019 0.159-0.05 0.248-0.209 0.267v0l-5.559 0.681c-0.126 0.015-0.194-0.023-0.205-0.116v0l-1.244-10.154c-0.144-1.178-0.687-2.149-1.627-2.913-0.933-0.759-2.004-1.064-3.215-0.916v0l-3.236 0.396 1.716 14.419c0.019 0.159-0.034 0.246-0.159 0.261zM33.069-16v0l-4.218 0.517 0.945 7.713 4.218-0.517c1.006-0.123 1.857-0.607 2.553-1.452 0.695-0.851 0.976-1.819 0.843-2.904v0c-0.127-1.039-0.618-1.889-1.472-2.55-0.861-0.667-1.817-0.936-2.869-0.807zM55.426 10.142v0l-5.571 0.568c-0.159 0.016-0.247-0.055-0.263-0.214v0l-3.395-33.76c-0.013-0.126 0.044-0.195 0.17-0.208v0l5.521-0.564c0.126-0.013 0.195 0.044 0.208 0.17v0l3.495 33.75c0.016 0.159-0.039 0.245-0.165 0.258zM65.328 9.329v0l-5.573 0.442c-0.133 0.011-0.206-0.064-0.218-0.223v0l-2.589-33.831c-0.01-0.126 0.048-0.194 0.175-0.205v0l6.011-0.477c0.126-0.01 0.244 0.044 0.354 0.162v0l5.011 6.132 3.951-6.844c0.09-0.134 0.208-0.207 0.353-0.219v0l6.031-0.479c0.146-0.012 0.224 0.046 0.235 0.172v0l2.778 33.816c0.013 0.16-0.044 0.244-0.171 0.254v0l-5.582 0.444c-0.126 0.01-0.196-0.065-0.209-0.224v0l-2.046-25.117-4.568 7.907-5.72-7.09 1.947 25.125c0.013 0.16-0.044 0.244-0.17 0.255zM101.636 7.017v0l-15.939 0.813c-0.133 0.007-0.204-0.07-0.212-0.23v0l-1.679-33.888c-0.006-0.127 0.054-0.193 0.181-0.199v0l15.849-0.809c0.133-0.007 0.204 0.07 0.212 0.23v0l0.281 5.513c0.006 0.127-0.057 0.193-0.19 0.2v0l-10.117 0.515 0.393 7.71 10.117-0.515c0.133-0.007 0.203 0.053 0.21 0.179v0l0.325 5.591c0.006 0.127-0.054 0.193-0.18 0.199v0l-10.167 0.519 0.439 8.618 10.167-0.518c0.127-0.006 0.194 0.07 0.202 0.23v0l0.288 5.643c0.006 0.127-0.054 0.193-0.18 0.199zM104.084 6.709v0l5.307-34.067c0.03-0.127 0.112-0.193 0.245-0.196v0l7.158-0.171c0.127-0.003 0.208 0.058 0.244 0.184v0l6.69 33.78c0.024 0.159-0.038 0.241-0.184 0.244v0l-5.468 0.131c-0.16 0.004-0.252-0.074-0.276-0.234v0l-0.617-3.606-6.728 0.161-0.443 3.632c-0.009 0.16-0.088 0.242-0.234 0.245v0l-5.499 0.132c-0.127 0.003-0.192-0.075-0.195-0.235zM116.067-2.481l-2.351-13.817-0.333-1.823-0.177 1.835-1.887 13.919zM134.507 6.967v0c-1.733 0-3.34-0.451-4.82-1.351v0c-1.48-0.9-2.656-2.111-3.529-3.63-0.88-1.52-1.319-3.18-1.319-4.98v0l0.105-24.69c0-0.127 0.063-0.19 0.19-0.19v0l5.55 0.001c0.127 0 0.19 0.063 0.19 0.19v0l-0.005 24.69c0 1.113 0.353 2.06 1.06 2.84 0.713 0.78 1.573 1.17 2.579 1.17v0c1.067 0 1.953-0.39 2.661-1.169 0.707-0.78 1.06-1.726 1.06-2.84v0l0.005-24.69c0-0.127 0.063-0.19 0.19-0.19v0l5.55 0.001c0.127 0 0.19 0.063 0.19 0.19v0l0.095 24.69c0 1.82-0.434 3.493-1.301 5.02v0c-0.887 1.513-2.064 2.713-3.531 3.599-1.46 0.893-3.1 1.339-4.92 1.339zM156.735 7.313v0c-1.779-0.049-3.396-0.544-4.851-1.485v0c-1.441-0.94-2.571-2.182-3.388-3.725-0.818-1.543-1.201-3.244-1.15-5.103v0l0.475-15.403c0.051-1.833 0.516-3.477 1.397-4.933v0c0.874-1.47 2.06-2.641 3.558-3.514 1.491-0.866 3.136-1.274 4.936-1.224v0c1.833 0.051 3.453 0.539 4.861 1.465v0c1.422 0.92 2.542 2.144 3.36 3.674 0.818 1.523 1.202 3.211 1.151 5.064v0l-0.063 2.259c-0.004 0.133-0.069 0.198-0.195 0.194v0l-5.548-0.153c-0.127-0.003-0.188-0.072-0.184-0.205v0l0.062-2.259c0.03-1.093-0.297-2.042-0.982-2.848-0.685-0.813-1.56-1.234-2.626-1.263v0c-1.173-0.032-2.084 0.346-2.732 1.135-0.648 0.782-0.987 1.707-1.017 2.773v0l-0.425 15.404c-0.033 1.2 0.293 2.192 0.978 2.978 0.692 0.786 1.541 1.193 2.547 1.221v0c1.066 0.029 1.964-0.369 2.694-1.196 0.73-0.827 1.109-1.76 1.138-2.8v0l0.063-2.289c0.004-0.133 0.069-0.198 0.195-0.195v0l5.598 0.155c0.127 0.003 0.188 0.072 0.185 0.205v0l-0.064 2.289c-0.051 1.846-0.531 3.52-1.439 5.022v0c-0.928 1.488-2.128 2.666-3.598 3.532-1.471 0.866-3.116 1.275-4.936 1.225zM180.066 7.847v0l-5.562-0.304c-0.146-0.008-0.215-0.092-0.206-0.251v0l1.535-28.128-6.401-0.35c-0.16-0.009-0.235-0.093-0.226-0.252v0l0.351-5.509c0.007-0.126 0.074-0.186 0.2-0.18v0l18.732 1.022c0.18 0.01 0.266 0.078 0.259 0.205v0l-0.301 5.512c-0.009 0.16-0.08 0.236-0.213 0.228v0l-6.47-0.353-1.495 28.131c-0.009 0.16-0.076 0.236-0.203 0.229zM194.814 8.779v0l-5.586-0.394c-0.16-0.011-0.234-0.097-0.223-0.256v0l2.436-33.842c0.009-0.126 0.077-0.185 0.203-0.177v0l5.536 0.391c0.126 0.009 0.185 0.077 0.176 0.203v0l-2.336 33.849c-0.011 0.16-0.08 0.235-0.206 0.226zM208.033 10.445v0c-1.746-0.159-3.312-0.754-4.698-1.785v0c-1.379-1.03-2.445-2.332-3.198-3.906-0.753-1.582-1.047-3.269-0.884-5.062v0l1.472-15.58c0.167-1.826 0.758-3.425 1.773-4.799v0c0.998-1.395 2.274-2.47 3.829-3.225 1.555-0.755 3.196-1.054 4.922-0.897v0c1.793 0.164 3.362 0.752 4.709 1.765v0c1.361 1.008 2.408 2.292 3.143 3.852 0.741 1.567 1.029 3.254 0.864 5.059v0l-1.372 15.59c-0.164 1.793-0.745 3.393-1.744 4.801v0c-1.02 1.427-2.302 2.521-3.844 3.285-1.536 0.764-3.193 1.064-4.972 0.902zM208.573 4.519v0c0.996 0.091 1.899-0.235 2.71-0.978 0.811-0.743 1.262-1.619 1.355-2.627v0l1.372-15.59c0.099-1.089-0.162-2.04-0.784-2.853-0.621-0.82-1.46-1.278-2.516-1.374v0c-1.009-0.092-1.906 0.198-2.69 0.869-0.791 0.671-1.238 1.567-1.34 2.689v0l-1.422 15.585c-0.098 1.076 0.179 2.035 0.832 2.878 0.646 0.842 1.474 1.309 2.483 1.401zM226.304 11.863v0l-4.906-0.58c-0.258-0.031-0.374-0.158-0.347-0.384v0l3.901-33.413c0.03-0.252 0.174-0.362 0.432-0.331v0l4.43 0.524 5.996 20.304 2.003-18.976c0.03-0.252 0.19-0.36 0.481-0.325v0l4.857 0.574c0.192 0.023 0.273 0.16 0.243 0.411v0l-3.907 33.463c-0.023 0.192-0.114 0.279-0.273 0.26v0l-4.31-0.51-6.365-19.059-1.732 17.709c-0.031 0.258-0.198 0.369-0.503 0.333zM251.46 15.667v0c-1.735-0.255-3.269-0.935-4.603-2.04v0c-1.32-1.104-2.304-2.461-2.949-4.072-0.645-1.618-0.837-3.317-0.575-5.098v0l0.329-2.246c0.025-0.171 0.117-0.246 0.276-0.222v0l5.481 0.805c0.132 0.019 0.185 0.115 0.16 0.286v0l-0.33 2.246c-0.157 1.069 0.064 2.041 0.663 2.917 0.606 0.877 1.41 1.39 2.412 1.537v0c1.016 0.149 1.938-0.12 2.767-0.806 0.834-0.679 1.327-1.537 1.479-2.573v0c0.175-1.194-0.45-2.35-1.875-3.469v0c-0.234-0.196-0.535-0.439-0.904-0.729-0.375-0.291-0.817-0.629-1.327-1.014v0c-0.516-0.386-1.013-0.762-1.492-1.128-0.484-0.374-0.954-0.733-1.408-1.076v0c-1.627-1.31-2.756-2.82-3.388-4.531-0.638-1.711-0.812-3.552-0.522-5.524v0c0.266-1.814 0.952-3.388 2.057-4.722v0c1.103-1.314 2.439-2.29 4.009-2.928 1.563-0.64 3.189-0.836 4.877-0.588v0c1.728 0.254 3.255 0.916 4.58 1.987v0c1.316 1.089 2.303 2.42 2.961 3.993 0.651 1.578 0.845 3.264 0.581 5.058v0l-0.589 4.007c-0.019 0.132-0.092 0.189-0.217 0.17v0l-5.491-0.806c-0.125-0.018-0.178-0.094-0.159-0.226v0l0.539-4.014c0.168-1.141-0.052-2.123-0.658-2.947-0.614-0.818-1.413-1.299-2.396-1.444v0c-1.003-0.147-1.919 0.106-2.749 0.759-0.825 0.66-1.314 1.515-1.469 2.564v0c-0.157 1.069-0.063 1.992 0.281 2.77 0.35 0.786 1.08 1.594 2.191 2.424v0c0.123 0.079 0.397 0.281 0.821 0.606 0.418 0.317 0.888 0.676 1.408 1.076 0.522 0.393 0.996 0.746 1.422 1.058 0.426 0.312 0.681 0.501 0.765 0.567v0c1.49 1.142 2.61 2.442 3.359 3.899 0.756 1.459 0.993 3.151 0.71 5.077v0c-0.273 1.86-0.948 3.469-2.023 4.828v0c-1.094 1.349-2.427 2.346-3.997 2.991-1.577 0.644-3.246 0.837-5.007 0.578z" opacity="1" transform="matrix(1,0,0,1,0,0)" fill="#ffffff" class="wordmark-text-0" data-fill-palette-color="primary" id="text-0"></path></svg></g></svg></g></svg></g></svg></g><g transform="matrix(1,0,0,1,163.1698948193207,0)"><svg viewBox="0 0 69.18021036135859 96.05045236361254" height="96.05045236361254" width="69.18021036135859"><g><svg xmlns="http://www.w3.org/2000/svg" xmlns:xlink="http://www.w3.org/1999/xlink" version="1.1" x="0" y="0" viewBox="11.8 9.3 81.10000000000001 112.60000000000001" enable-background="new 0 0 108.3 129.2" xml:space="preserve" height="96.05045236361254" width="69.18021036135859" class="icon-icon-0" data-fill-palette-color="accent" id="icon-0"><g fill="#f4ab4f" data-fill-palette-color="accent"><g fill="#f4ab4f" data-fill-palette-color="accent"><g fill="#f4ab4f" data-fill-palette-color="accent"><g fill="#f4ab4f" data-fill-palette-color="accent"><path fill="#ffffff" d="M71 121.4C67 121.4 63.8 119.9 62.1 118.5L61.8 118.2 50.2 106 54 102.4 65.4 114.5C66.3 115.1 71.7 118.5 78.3 113.5 80.3 112 81.4 110.3 81.6 108.5 81.9 105.3 79.5 102.4 79.4 102.4L65.8 88.4 69.6 84.7 83.2 98.8C83.4 99.1 87.3 103.5 86.7 109 86.4 112.4 84.6 115.3 81.3 117.7 77.8 120.5 74.2 121.4 71 121.4" data-fill-palette-color="accent"></path></g></g></g><g fill="#f4ab4f" data-fill-palette-color="accent"><g fill="#f4ab4f" data-fill-palette-color="accent"><g fill="#f4ab4f" data-fill-palette-color="accent"><path fill="#ffffff" d="M72 109.4C71.5 109.4 71.1 109.2 70.7 108.9L58.3 95.9C57.6 95.2 57.7 94.1 58.4 93.4S60.2 92.8 60.9 93.5L73.3 106.5C74 107.2 73.9 108.3 73.2 109 72.8 109.2 72.4 109.4 72 109.4" data-fill-palette-color="accent"></path></g></g></g><g fill="#f4ab4f" data-fill-palette-color="accent"><g fill="#f4ab4f" data-fill-palette-color="accent"><g fill="#f4ab4f" data-fill-palette-color="accent"><path fill="#ffffff" d="M30.1 109.7C29.7 109.7 29.2 109.5 28.9 109.2 28.2 108.5 28.2 107.4 28.9 106.7L67.8 67C69.6 65.4 74.3 61 75.5 59.2 77.2 56.7 77.3 53.2 77.3 49.8 77.2 36.1 66.1 25 52.4 25S27.6 36.1 27.6 49.8C27.6 55.1 28.6 59 30.6 61.8 33.6 65.9 44.8 76.7 44.9 76.8 45.6 77.5 45.6 78.6 44.9 79.3S43.1 80 42.4 79.3C42 78.8 31 68.2 27.8 63.9 25.3 60.5 24.1 55.9 24.1 49.9 24.1 34.3 36.8 21.6 52.4 21.6S80.7 34.3 80.7 49.9C80.7 53.8 80.5 57.9 78.3 61.2 76.7 63.7 70.8 69 70.1 69.6L31.3 109.2C31 109.5 30.5 109.7 30.1 109.7" data-fill-palette-color="accent"></path></g></g></g><g fill="#f4ab4f" data-fill-palette-color="accent"><g fill="#f4ab4f" data-fill-palette-color="accent"><g fill="#f4ab4f" data-fill-palette-color="accent"><path fill="#ffffff" d="M30.6 121.9C27.6 121.9 24.4 121 21.1 118.5 17.9 116 16 113.1 15.6 109.7 14.9 104.2 18.4 99.7 18.5 99.5L18.7 99.2 31.8 86.5 26.8 81.2C17.3 73.5 11.8 62 11.8 49.7 11.9 27.5 30 9.3 52.4 9.3S92.9 27.5 92.9 49.8C92.9 63.4 87.6 74.8 78 82L41.4 117.7C39.3 119.7 35.3 121.9 30.6 121.9M22.6 102.9C22.2 103.5 20.5 106.2 20.9 109.1 21.2 111 22.3 112.8 24.4 114.4 31.4 119.7 37.6 114.2 37.8 114L74.8 78C83.2 71.8 87.7 62.1 87.7 49.9 87.7 30.5 71.9 14.6 52.4 14.6S17.1 30.4 17.1 49.8C17.1 60.5 21.9 70.6 30.3 77.3L30.6 77.5 35.7 82.9 48.6 70.4 38 59.4C36.1 56.5 35 53.2 35 49.7 35 40.2 42.8 32.4 52.3 32.4S69.6 40.2 69.6 49.7C69.6 53.2 68.6 56.5 66.6 59.4L66.3 59.8 55.7 70.8zM42.3 56.4L52.4 66.8 62.5 56.4C63.8 54.5 64.4 52.2 64.4 49.9 64.4 43.3 59 37.9 52.4 37.9S40.4 43.3 40.4 49.9C40.4 52.2 41 54.4 42.3 56.4" data-fill-palette-color="accent"></path></g></g></g></g></svg></g></svg></g><g></g></svg></g><defs></defs></svg><rect width="395.52" height="182.07988937272984" fill="none" stroke="none" visibility="hidden"></rect></g></svg></g></svg>